# xmcd CD database file
#
# Track frame offsets:
#	150
#	11596
#	27771
#	41306
#	53746
#	69823
#	79777
#	92098
#	106745
#	125141
#	136670
#	147402
#
# Disc length: 2220 seconds
#
# Revision: 0
# Processed by: cddbd v1.5.2PL0 Copyright (c) Steve Scherf et al.
# Submitted via: CDex 1.70beta2
#
DISCID=9108aa0c
DTITLE=Jena Thranum - Riding Through The Millennium with Jena
DYEAR=2000
DGENRE=Country
TTITLE0=I Want To Be A Cowboy Sweetheart
TTITLE1=You Light Up My Life
TTITLE2=Rocky Top
TTITLE3=Crazy
TTITLE4=Broken Wing
TTITLE5=Satisfied
TTITLE6=Walkin After Midnight
TTITLE7=Amazing Grace
TTITLE8=Yippy Ky Yay
TTITLE9=Down in Dallas
TTITLE10=Yodeling Blues
TTITLE11=Immortality
EXTD=YEAR: 2000
EXTT0=
EXTT1=
EXTT2=
EXTT3=
EXTT4=
EXTT5=
EXTT6=
EXTT7=
EXTT8=
EXTT9=
EXTT10=
EXTT11=
PLAYORDER=
